<svg width="1140" height="893" viewBox="0 0 1140 893" fill="none" xmlns="http://www.w3.org/2000/svg">
<path d="M548.224 816.102V769.874L591.776 744.74V794.26L632.336 817.748V768.976L675.14 793.661L716.447 769.724V724.394C715.25 724.094 714.202 722.898 714.202 721.551C714.202 721.252 714.202 721.102 714.352 720.803L674.691 697.913L674.391 697.764V647.496L717.196 672.181L759.252 647.945L801.308 672.181L842.615 648.244V600.52L799.811 575.835L842.615 551.15L842.615 501.63L886.168 526.614L886.467 526.764V574.488L924.931 552.197C924.931 551.898 924.781 551.748 924.781 551.449C924.781 550.102 925.679 548.905 927.026 548.606V454.803L885.27 430.716L884.97 430.567V380.299L928.224 405.283L928.523 405.433L928.523 454.055L969.831 477.992L1010.39 454.504L969.382 430.866L969.082 430.716V380.449L1012.34 405.433L1012.63 405.583V501.929L1051.1 479.638C1051.1 479.339 1050.95 479.189 1050.95 478.89C1050.95 477.543 1051.85 476.346 1053.19 476.047V429.819L1094.5 405.882L1053.94 382.394L1053.19 382.842V381.945L1052.45 381.496L1053.19 381.047V332.425L1093.6 309.236C1093.6 308.937 1093.45 308.787 1093.45 308.488C1093.45 306.842 1094.8 305.496 1096.45 305.496C1098.09 305.496 1099.44 306.842 1099.44 308.488C1099.44 309.835 1098.54 311.031 1097.2 311.331V356.661L1140 381.496L1097.94 405.732L1138.8 429.37L1139.1 429.52V478.142L1140 478.591L1139.25 479.039V527.661L1097.94 551.449L1138.95 575.236L1139.25 575.386V625.654L1096 600.669L1095.7 600.52V552.795V503.276L1056.49 480.535C1056.19 480.835 1055.59 481.134 1055.14 481.283V527.512L1013.83 551.449L1054.69 575.236L1054.99 575.386V624.008L1094.2 646.598C1094.8 646 1095.4 645.701 1096.3 645.701C1097.94 645.701 1099.29 647.047 1099.29 648.693C1099.29 650.039 1098.39 651.236 1097.05 651.535L1097.05 745.488L1138.95 769.575L1139.25 769.724V819.992V867.716L1097.2 891.953V892.85L1096.45 892.401L1095.7 892.85V891.953L1053.94 867.866L1053.64 867.716V817.449L1094.35 840.937C1094.95 840.339 1095.55 840.039 1096.45 840.039C1097.2 840.039 1097.94 840.339 1098.54 840.937L1137.01 818.795L1097.05 795.756L1054.24 771.071L1011.44 795.905V746.386L969.681 722.299L969.382 722.15V675.921C968.184 675.622 967.137 674.425 967.137 673.079C967.137 671.433 968.484 670.087 970.13 670.087C971.776 670.087 973.123 671.433 973.123 673.079C973.123 673.378 973.123 673.528 972.974 673.827L1012.63 696.716L1012.93 696.866V744.591L1053.49 721.102V624.756L1012.19 600.968L969.382 625.654V576.134L930.169 553.394C929.87 553.693 929.271 553.992 928.822 554.142V600.37L888.862 623.409C888.862 623.709 889.011 623.858 889.011 624.157C889.011 624.457 889.011 624.606 888.862 624.905L928.523 647.795L928.822 647.945V745.039L967.885 767.63C968.484 766.882 969.232 766.433 970.28 766.433C971.926 766.433 973.273 767.779 973.273 769.425C973.273 770.772 972.375 771.968 971.028 772.268V819.842L928.972 795.606V843.331L885.419 868.464V818.346L926.727 794.559L886.018 771.071L846.806 793.811C846.806 794.11 846.955 794.26 846.955 794.559C846.955 796.205 845.608 797.551 843.962 797.551C842.316 797.551 840.969 796.205 840.969 794.559C840.969 793.213 841.867 792.016 843.214 791.716V697.764L801.906 673.827L761.347 697.315L802.355 720.953L802.655 721.102V769.724L803.403 770.173L802.655 770.622V818.346L844.411 842.433L844.711 842.583L844.711 892.85L801.457 867.866L801.158 867.716V819.992L760.599 843.48V844.378L759.85 843.929L717.046 868.614V821.488C716.597 821.339 715.998 821.039 715.699 820.74L676.487 843.48L676.487 893L634.431 868.764L590.729 843.779L590.429 843.63V795.905L551.965 818.197C551.965 818.496 552.115 818.646 552.115 818.945C552.115 820.591 550.768 821.937 549.122 821.937C547.475 821.937 546.128 820.591 546.128 818.945C545.979 817.449 547.026 816.401 548.224 816.102ZM1011.44 406.181L970.878 382.693V429.52L1011.44 453.008L1011.44 406.181ZM1097.2 599.772L1137.76 623.11V576.283L1097.2 552.795V599.772ZM1054.99 820.142V866.968L1095.55 890.457V846.024C1094.35 845.724 1093.3 844.527 1093.3 843.181C1093.3 842.882 1093.3 842.732 1093.45 842.433L1054.99 820.142ZM1097.05 846.024V890.457L1137.76 866.968V820.142L1099.29 842.433C1099.29 842.732 1099.44 842.882 1099.44 843.181C1099.29 844.527 1098.39 845.575 1097.05 846.024ZM633.982 818.346L674.541 841.835V795.008L633.982 771.52V818.346ZM718.094 816.102C718.543 816.252 719.141 816.551 719.441 816.85L757.905 794.559L718.094 771.52V816.102ZM758.803 745.488V698.661L720.339 720.953C720.339 721.252 720.488 721.401 720.488 721.701C720.488 723.047 719.59 724.244 718.243 724.543V768.976L758.803 745.488ZM718.094 718.858C718.543 719.008 719.141 719.307 719.441 719.606L757.905 697.315L718.094 674.276V718.858ZM759.551 746.835L718.992 770.323L737.401 780.945L759.551 793.661L800.11 770.173L781.701 759.551L759.551 746.835ZM758.803 795.905L720.339 818.197C720.339 818.496 720.488 818.646 720.488 818.945C720.488 819.244 720.488 819.394 720.339 819.693L758.803 841.984V795.905ZM676.038 696.866L715.25 719.606C715.549 719.307 716.148 719.008 716.597 718.858V673.528L676.038 650.039V696.866ZM885.12 621.614V577.181L844.561 600.669V647.496L883.025 625.205C883.025 624.905 882.875 624.756 882.875 624.457C882.875 623.11 883.773 621.913 885.12 621.614ZM885.12 627.299C884.671 627.15 884.072 626.85 883.773 626.551L845.309 648.842L885.12 671.732V627.299ZM843.663 599.323L884.222 575.835L864.317 564.315L843.663 552.346L803.104 575.835L843.663 599.323ZM885.12 527.661L844.561 504.173L844.561 551L885.12 574.488V527.661ZM927.176 406.181L886.617 382.693V429.52L927.176 453.008L927.176 406.181ZM928.673 502.527L941.993 510.157L969.382 526.016V479.189L928.822 455.701V502.527H928.673ZM970.878 574.488L991.233 562.819L1011.59 551.15V504.173L991.233 515.842L970.878 527.512V574.488ZM1011.44 455.701L970.878 479.189V526.016L991.233 514.346L1011.59 502.677V455.701H1011.44ZM1054.99 475.748C1055.44 475.898 1056.04 476.197 1056.34 476.496L1095.55 453.756V406.929L1054.99 430.417V475.748ZM1054.99 333.323V380.15L1095.55 356.661V311.331C1095.1 311.181 1094.5 310.882 1094.2 310.583L1054.99 333.323ZM1096.45 358.008L1055.74 381.496L1095.55 404.535L1096.3 404.984L1097.05 404.535L1137.01 381.496L1096.45 358.008ZM1137.76 430.417L1097.2 406.929V453.756L1137.76 477.394V430.417ZM1137.76 479.937L1097.2 503.425V550.252L1137.76 526.764V479.937ZM1096.45 502.079L1137.01 478.591L1118.6 467.968L1096.45 455.252L1057.24 477.992C1057.24 478.291 1057.38 478.441 1057.38 478.74C1057.38 479.039 1057.38 479.189 1057.24 479.488L1096.45 502.079ZM1053.49 481.433C1053.04 481.283 1052.45 480.984 1052.15 480.685L1012.93 503.425V550.252L1053.49 526.764V481.433ZM1053.49 576.283L1012.93 552.795V599.622L1053.49 623.11V576.283ZM1095.55 651.535C1094.35 651.236 1093.3 650.039 1093.3 648.693C1093.3 648.394 1093.3 648.244 1093.45 647.945L1054.99 625.654V672.48L1095.55 695.968V651.535ZM1054.99 721.252L1095.55 744.74L1095.55 697.913L1054.99 674.425V721.252ZM1097.2 794.11L1137.76 817.598V770.772L1097.2 747.283V794.11ZM1095.55 746.386L1054.99 722.898L1054.99 769.724L1095.55 793.213V746.386ZM1011.44 697.764L972.225 675.024C971.926 675.323 971.327 675.622 970.878 675.772V721.102L1011.44 744.591V697.764ZM1012.93 747.283V793.362L1053.49 769.874L1053.49 723.047L1012.93 746.535V747.283ZM970.878 623.11L1011.44 599.622V552.795L991.083 564.464L970.729 576.134V623.11H970.878ZM969.382 574.488V527.661L946.184 514.197L928.822 504.173V548.606C930.02 548.905 931.067 550.102 931.067 551.449C931.067 551.748 931.067 551.898 930.918 552.197L969.382 574.488ZM927.176 599.772V554.441C926.727 554.291 926.128 553.992 925.829 553.693L886.617 576.433V621.764C887.066 621.913 887.664 622.213 887.964 622.512L927.176 599.772ZM927.176 649.142L887.964 626.402C887.664 626.701 887.066 627 886.617 627.15V672.48L887.365 672.929L927.176 695.968V649.142ZM927.176 746.386L886.617 722.898V769.724L927.176 793.213V746.386ZM886.617 721.252L927.176 744.74V697.913L886.617 674.425V721.252ZM969.382 817.598V772.567C968.184 772.268 967.137 771.071 967.137 769.724C967.137 769.575 967.137 769.575 967.137 769.425L928.673 747.283V794.11L969.382 817.598ZM886.617 866.22L927.176 842.732V795.905L886.617 819.394V866.22ZM844.411 791.716C844.86 791.866 845.459 792.165 845.758 792.465L884.97 769.724V722.898L844.411 746.386V791.716ZM885.12 721.252V674.425L844.561 697.913V744.74L885.12 721.252ZM843.663 696.417L884.222 672.929L843.663 649.441L842.915 649.89L803.104 672.929L843.663 696.417ZM759.551 649.591L718.992 673.079L758.803 696.118L759.551 696.567L760.299 696.118L800.11 673.079L759.551 649.591ZM800.859 722.15L760.299 698.661V745.488L800.859 768.976V722.15ZM802.355 866.968L842.915 890.457L842.915 843.63L802.355 820.142V866.968ZM800.859 818.496V771.669L760.299 795.157V841.984L800.859 818.496ZM758.054 843.181L719.59 820.89C719.291 821.189 718.692 821.488 718.243 821.638V866.22L758.054 843.181ZM716.597 816.102V771.669L676.038 795.157V841.984L714.502 819.693C714.502 819.394 714.352 819.244 714.352 818.945C714.502 817.449 715.4 816.401 716.597 816.102ZM674.541 890.457L674.541 843.63L633.982 820.142V866.968L674.541 890.457ZM591.776 842.732L632.485 866.22V819.394L591.926 795.905V842.732H591.776ZM590.28 794.11V747.283L549.72 770.772V816.102C550.169 816.252 550.618 816.551 551.067 816.85L590.28 794.11ZM0 511.654L42.0559 487.417L1.04761 463.779L0.748291 463.63V415.008L0 414.559L0.748291 414.11V365.488L42.0559 341.701L1.04761 318.063L0.748291 317.913V267.646L44.0016 292.63L44.3009 292.78V340.504V390.024L83.5132 412.764C83.8125 412.465 84.4111 412.165 84.8601 412.016V317.165L126.916 292.929V243.858L167.176 220.819C167.176 220.52 167.026 220.37 167.026 220.071C167.026 219.772 167.026 219.622 167.176 219.323L127.515 196.433L127.215 196.283V148.409L86.6561 171.898V270.039L45.9473 246.551C45.3485 247.15 44.7499 247.449 43.8518 247.449C42.2056 247.449 40.8585 246.102 40.8585 244.457C40.8585 243.11 41.7566 241.913 43.1035 241.614V147.661L1.04761 123.425L0.748291 123.276V72.8583L42.9539 97.2441L85.7582 121.929L128.562 97.2441V146.764L170.319 170.85L170.618 171V217.228C171.816 217.528 172.863 218.724 172.863 220.071C172.863 221.417 171.965 222.614 170.618 222.913V269.142L128.562 293.378V341.102L169.122 364.591L169.122 316.866L211.178 292.63V291.732L211.926 292.181L212.674 291.732V292.63L254.431 316.716L254.73 316.866L254.73 367.134L214.021 343.646C213.423 344.244 212.824 344.543 211.926 344.543C211.028 344.543 210.429 344.244 209.831 343.646L170.618 366.236V464.378L127.814 439.693L86.5065 463.63L45.1989 487.567L85.7582 511.055L86.5065 510.606V511.504L87.2548 511.953L86.5065 512.402V561.024L44.4506 585.26V630.591C45.6478 630.89 46.6956 632.087 46.6956 633.433C46.6956 635.079 45.3485 636.425 43.7023 636.425C42.0559 636.425 40.709 635.079 40.709 633.433C40.709 633.134 40.7089 632.984 40.8585 632.685L1.19727 609.795L0.898071 609.646V559.378L42.9539 583.614V536.787L0 511.654ZM42.8043 293.378L2.245 269.89V316.716L42.8043 340.205V293.378ZM2.245 462.583L42.8043 486.071V439.244L2.245 415.756V462.583ZM2.245 413.063L42.8043 389.575V342.748L2.245 366.236V413.063ZM43.5526 390.921L2.99329 414.409L21.4021 425.031L43.5526 437.748L82.7648 415.008C82.7648 414.709 82.6152 414.559 82.6152 414.26C82.6152 413.961 82.6151 413.811 82.7648 413.512L43.5526 390.921ZM86.5065 366.236V411.567C86.9554 411.717 87.5542 412.016 87.8535 412.315L106.861 401.394L127.215 389.724L127.215 342.898L106.861 354.567L86.5065 366.236ZM85.0098 171.898L44.4506 148.409V195.236L85.0098 218.724V171.898ZM85.0098 267.346V220.52L44.4506 197.031V241.465C45.6478 241.764 46.6956 242.961 46.6956 244.307C46.6956 244.606 46.6956 244.756 46.5459 245.055L85.0098 267.346ZM42.8043 98.8898L2.245 75.4016V122.228L42.8043 145.717V98.8898ZM44.4506 146.614L85.0098 170.102V123.276L44.4506 99.7874V146.614ZM127.066 99.7874L86.5065 123.276V170.102L127.066 146.614V145.717V99.7874ZM128.562 148.409V195.236L167.775 217.976C168.074 217.677 168.673 217.378 169.122 217.228V171.898L128.562 148.409ZM169.271 268.244V222.913C168.822 222.764 168.373 222.465 167.924 222.165L128.712 244.905V291.732L169.271 268.244ZM86.5065 317.614V364.441L106.861 352.772L127.215 341.102V294.276L86.5065 317.614ZM253.383 364.591L253.383 317.764L212.824 294.276V338.709C214.021 339.008 215.069 340.205 215.069 341.551C215.069 341.85 215.069 342 214.919 342.299L253.383 364.591ZM211.327 338.709V294.276L170.768 317.764L170.768 364.591L209.232 342.299C209.232 342 209.082 341.85 209.082 341.551C209.082 340.205 209.98 339.008 211.327 338.709ZM169.271 366.236L128.712 342.748L128.712 389.575L169.271 413.063V366.236ZM169.271 414.858L128.712 391.37V438.346L169.271 461.835V414.858ZM127.066 438.346V391.52L106.711 403.189L88.4521 413.661C88.4521 413.961 88.6018 414.11 88.6018 414.409C88.6018 415.756 87.7039 416.953 86.3568 417.252V461.685L127.066 438.346ZM85.0098 417.252C84.5608 417.102 83.9622 416.803 83.6628 416.504L44.4506 439.244V486.071L85.0098 462.583V417.252ZM44.3009 488.614L43.5526 488.165L42.8043 488.614L2.99329 511.654L43.5526 535.142L84.2615 511.654L44.3009 488.614ZM85.0098 513L44.4506 536.488V583.315L85.0098 559.827V513ZM2.245 561.472V608.299L41.4573 631.039C41.7566 630.74 42.3552 630.441 42.8043 630.291V584.961L2.245 561.472ZM251.288 268.543C251.288 268.244 251.288 268.094 251.438 267.795L211.776 244.905L211.477 244.756V147.661L172.414 125.071C171.816 125.819 171.067 126.268 170.02 126.268C168.373 126.268 167.026 124.921 167.026 123.276C167.026 121.929 167.924 120.732 169.271 120.433V72.8583L211.178 97.2441V49.5197L254.73 24.3858V74.6535L213.572 98.4409L254.281 121.929L293.494 99.189C293.494 98.8898 293.344 98.7402 293.344 98.4409C293.344 96.7953 294.691 95.4488 296.337 95.4488C297.983 95.4488 299.33 96.7953 299.33 98.4409C299.33 99.7874 298.432 100.984 297.085 101.283V145.717V195.236L338.393 219.173L378.952 195.685L337.944 172.047L337.645 171.898V123.276L336.896 122.827L337.645 122.378V74.6535L295.888 50.5669L295.589 50.4173V0L338.842 24.9843L339.141 25.1339V72.8583L379.701 49.5197V48.622L380.449 49.0709L423.253 24.3858V71.5118C423.702 71.6614 424.301 71.9606 424.6 72.2598L463.813 49.6693V0L505.868 24.2362L549.122 49.2205L549.421 49.3701V97.2441L589.98 73.7559V72.8583L590.729 73.3071L591.477 72.8583V73.7559L632.785 97.6929L676.038 72.8583V122.378L716.597 145.866V97.9921L760.15 72.8583L802.206 48.622V98.1417L841.418 120.882C842.017 120.283 842.615 119.984 843.513 119.984C845.159 119.984 846.507 121.331 846.507 122.976C846.507 124.622 845.159 125.968 843.513 125.968C842.765 125.968 842.017 125.669 841.418 125.071L802.206 147.811V197.331L758.952 172.346L758.653 172.197V124.024L718.094 147.512V197.031L677.385 173.543C677.085 173.842 676.487 174.142 676.038 174.291V220.52L632.485 245.654V197.031L590.429 221.268V171L631.737 147.063L591.178 123.575L548.373 148.26V98.8898L507.814 75.4016V170.85L549.571 194.937L549.87 195.087V245.354L509.161 221.866C508.562 222.465 507.964 222.764 507.066 222.764C505.419 222.764 504.072 221.417 504.072 219.772C504.072 218.425 504.97 217.228 506.317 216.929V171.598L464.561 147.512L464.262 147.362V99.7874L423.702 123.276V168.606C424.9 168.905 425.947 170.102 425.947 171.449C425.947 171.748 425.947 171.898 425.798 172.197L465.459 195.087L465.758 195.236V245.504L422.954 220.819L380.898 245.055L338.842 220.819L296.786 245.055L255.479 221.118V265.551C256.676 265.85 257.724 267.047 257.724 268.394C257.724 270.039 256.377 271.386 254.73 271.386C252.485 271.535 251.288 270.189 251.288 268.543ZM212.824 243.858L252.036 266.598C252.336 266.299 252.934 266 253.383 265.85V220.52L252.635 220.071L212.824 197.031V243.858ZM295.589 148.409L255.03 171.898V218.724L295.589 195.236V148.409ZM253.383 171.898L212.824 148.409V195.236L253.383 218.724V171.898ZM212.824 146.614L253.383 170.102V123.276L212.824 99.7874V146.614ZM170.618 75.5512V120.583C171.816 120.882 172.863 122.079 172.863 123.425C172.863 123.575 172.863 123.575 172.863 123.724L211.327 145.866V98.8898L170.618 75.5512ZM253.383 26.9291L212.824 50.4173V97.2441L253.383 73.7559V26.9291ZM295.589 101.283C295.14 101.134 294.541 100.835 294.242 100.535L255.03 123.276V170.102L295.589 146.614V101.283ZM380.449 146.315L421.008 122.827L402.599 112.205L380.449 99.4882L339.89 122.976L358.299 133.598L380.449 146.315ZM421.906 77.0472C421.457 76.8976 420.859 76.5984 420.559 76.2992L382.095 98.5905L421.906 121.63V77.0472ZM381.197 97.2441L419.661 74.9528C419.661 74.6535 419.512 74.5039 419.512 74.2047C419.512 73.9055 419.512 73.7559 419.661 73.4567L381.197 51.1654V97.2441ZM381.197 147.512V194.488L419.661 172.197C419.661 171.898 419.512 171.748 419.512 171.449C419.512 170.102 420.41 168.905 421.757 168.606V124.173L381.197 147.512ZM421.906 174.291C421.457 174.142 420.859 173.842 420.559 173.543L382.095 195.835L421.906 218.874V174.291ZM339.141 171L379.701 194.488V147.512L339.141 124.173V171ZM337.645 26.0315L297.085 2.54331V49.3701L337.645 72.8583V26.0315ZM339.141 74.6535V121.48L379.701 98.1417V51.1654L339.141 74.6535ZM381.946 49.9685L420.41 72.2598C420.709 71.9606 421.308 71.6614 421.757 71.5118V26.9291L381.946 49.9685ZM465.459 2.54331V49.3701L506.018 72.8583V26.0315L465.459 2.54331ZM591.776 75.5512V122.378L632.336 145.866V98.8898L591.776 75.5512ZM674.541 75.5512L633.982 99.0394V145.866L654.336 134.197L674.541 122.378V75.5512ZM633.832 194.339L654.187 182.669L672.446 172.197C672.446 171.898 672.296 171.748 672.296 171.449C672.296 170.102 673.194 168.905 674.541 168.606V124.173L654.187 135.843L633.832 147.512V194.339ZM718.094 145.866L758.653 122.378V75.5512L718.094 99.0394V145.866ZM800.859 51.1654L760.299 74.6535V121.48L800.859 97.9921V51.1654ZM840.819 122.079L801.607 99.3386L761.048 122.827L779.456 133.449L801.607 146.165L840.819 123.425C840.819 123.126 840.67 122.976 840.67 122.677C840.67 122.378 840.819 122.228 840.819 122.079ZM760.299 171L800.859 194.488V147.512L760.299 124.173V171ZM716.597 194.339V147.512L676.038 124.173V168.606C677.235 168.905 678.283 170.102 678.283 171.449C678.283 171.748 678.283 171.898 678.133 172.197L716.597 194.339ZM633.832 242.961L674.541 219.622V174.291C674.092 174.142 673.493 173.842 673.194 173.543L654.187 184.465L633.832 196.134V242.961ZM591.776 218.724L632.336 195.236V148.409L591.776 171.898V218.724ZM549.72 145.866L590.28 122.378V75.5512L549.72 99.0394V145.866ZM548.224 97.2441V50.2677L507.515 26.9291V73.7559L548.224 97.2441ZM465.459 51.1654V97.9921L506.018 121.48V74.6535L465.459 51.1654ZM548.224 242.961V196.134L507.664 172.646V217.079C508.862 217.378 509.909 218.575 509.909 219.921C509.909 220.22 509.909 220.37 509.76 220.669L548.224 242.961ZM465.459 146.614L506.018 170.102V123.276L465.459 99.7874V146.614ZM463.962 51.1654L425.498 73.4567C425.498 73.7559 425.648 73.9055 425.648 74.2047C425.648 75.5512 424.75 76.748 423.403 77.0472V121.48L463.962 97.9921V51.1654ZM463.962 196.134L424.75 173.394C424.451 173.693 423.852 173.992 423.403 174.142V219.472L463.962 242.961V196.134ZM380.449 243.409L421.008 219.921L381.197 196.882L380.449 196.433L379.701 196.882L339.89 219.921L380.449 243.409ZM336.896 220.071L296.337 196.583L255.778 220.071L296.337 243.559L336.896 220.071Z" fill="url(#paint0_linear_2_328)"/>
<defs>
<linearGradient id="paint0_linear_2_328" x1="938.419" y1="1018.68" x2="173.201" y2="-86.0407" gradientUnits="userSpaceOnUse">
<stop stop-color="#FFD5D2"/>
<stop offset="0.141313" stop-color="#FFF2F1"/>
<stop offset="0.234162" stop-color="#FFE1DF"/>
<stop offset="0.342344" stop-color="white"/>
<stop offset="0.716699" stop-color="#FFF2F1"/>
<stop offset="0.820623" stop-color="#FFF2F1"/>
<stop offset="0.879249" stop-color="#F87060" stop-opacity="0.1"/>
</linearGradient>
</defs>
</svg>
